<svg xmlns="http://www.w3.org/2000/svg" width="24" height="24" fill="#FFFFFF" viewBox="0 0 256 256">
  <path d="M178,40c-20.65,0-38.73,12.51-48,30.34C120.73,52.51,102.65,40,82,40A62.07,62.07,0,0,0,20,102c0,61.57,100.31,110.15,104.59,112.17a8,8,0,0,0,6.82,0C135.69,212.15,236,163.57,236,102A62.07,62.07,0,0,0,178,40Zm-50,155.1C112.6,183.18,40,138.83,40,102A46.06,46.06,0,0,1,86,56c17.52,0,33,14,37.6,34.05a8,8,0,0,0,15.6,0C143,70,158.48,56,176,56a46.06,46.06,0,0,1,46,46C222,138.83,149.4,183.18,128,195.1Z"></path>
</svg>
